<?xml version="1.0" encoding="utf-8"?>
<!-- Generator: Adobe Illustrator 16.0.0, SVG Export Plug-In . SVG Version: 6.00 Build 0)  -->
<!DOCTYPE svg PUBLIC "-//W3C//DTD SVG 1.1//EN" "http://www.w3.org/Graphics/SVG/1.1/DTD/svg11.dtd">
<svg version="1.1" id="Outlines" xmlns="http://www.w3.org/2000/svg" xmlns:xlink="http://www.w3.org/1999/xlink" x="0px" y="0px"
	 width="1197.139px" height="315.671px" viewBox="0 0 1197.139 315.671" enable-background="new 0 0 1197.139 315.671"
	 xml:space="preserve">
<g>
	<g>
		<path fill="#A4C63A" d="M148.032,13.031c0,0,0.007-13.031,9.748-13.031c9.738,0,9.86,13.031,9.86,13.031v123.03
			c0,0-0.791,12.951-9.805,12.951c-9.016,0-9.763-13.023-9.763-13.023L148.032,13.031z"/>
		<path fill="#A4C63A" d="M148.032,179.689c0,0,0.007-13.03,9.748-13.03c9.738,0,9.86,13.03,9.86,13.03v123.031
			c0,0-0.791,12.95-9.805,12.95c-9.016,0-9.763-13.023-9.763-13.023L148.032,179.689z"/>
	</g>
	<g>
		<path fill="#52C6DD" d="M179.69,167.051c0,0-13.031-0.006-13.031-9.747c0-9.739,13.031-9.859,13.031-9.859H302.72
			c0,0,12.951,0.789,12.951,9.803c0,9.016-13.024,9.763-13.024,9.763L179.69,167.051z"/>
		<path fill="#52C6DD" d="M308.209,136.923c-1.093,9.666-13.771,4.927-31.445-9.939c-21.697-18.254-76.448-73.627-86.64-86.508
			c-8.269-10.448-22.814-31.207-12.4-33.381C190.514,4.426,309.803,122.843,308.209,136.923z"/>
		<path fill="#52C6DD" d="M178.748,308.208c-9.665-1.093-4.926-13.771,9.939-31.443c18.254-21.699,73.628-76.449,86.508-86.641
			c10.448-8.269,31.208-22.814,33.381-12.4C311.244,190.514,192.828,309.803,178.748,308.208z"/>
	</g>
	<g>
		<path fill="#E44F50" d="M13.032,167.051c0,0-13.032-0.006-13.032-9.747c0-9.739,13.032-9.859,13.032-9.859h123.03
			c0,0,12.95,0.789,12.95,9.803c0,9.016-13.024,9.763-13.024,9.763L13.032,167.051z"/>
		<path fill="#E44F50" d="M141.551,178.747c-1.094-9.666-13.772-4.926-31.444,9.94c-21.698,18.253-76.449,73.627-86.641,86.507
			c-8.27,10.449-22.813,31.209-12.399,33.381C23.854,311.244,143.144,192.828,141.551,178.747z"/>
		<path fill="#E44F50" d="M7.463,136.923c1.093,9.666,13.771,4.927,31.443-9.939c21.699-18.254,76.449-73.627,86.642-86.508
			c8.268-10.448,22.813-31.207,12.399-33.381C125.158,4.426,5.868,122.843,7.463,136.923z"/>
	</g>
</g>
<g>
	<path fill="#989898" d="M345.864,119.792c2.04,4.193,4.845,7.538,8.415,10.029c3.569,2.494,7.79,4.279,12.665,5.355
		c4.871,1.078,10.085,1.615,15.64,1.615c3.172,0,6.63-0.452,10.37-1.36c3.74-0.906,7.225-2.351,10.455-4.335
		c3.229-1.981,5.921-4.531,8.075-7.65c2.151-3.115,3.229-6.885,3.229-11.305c0-3.4-0.765-6.346-2.295-8.84
		c-1.53-2.492-3.515-4.59-5.95-6.29c-2.438-1.7-5.129-3.087-8.075-4.165c-2.948-1.076-5.838-1.955-8.67-2.635l-27.029-6.63
		c-3.515-0.906-6.943-2.04-10.285-3.4c-3.345-1.36-6.264-3.172-8.755-5.44c-2.494-2.266-4.505-5.041-6.035-8.33
		c-1.53-3.285-2.295-7.31-2.295-12.069c0-2.946,0.565-6.401,1.7-10.37c1.131-3.966,3.256-7.706,6.375-11.22
		c3.115-3.512,7.395-6.487,12.835-8.926c5.439-2.436,12.409-3.654,20.909-3.654c6.006,0,11.73,0.794,17.17,2.38
		c5.44,1.588,10.2,3.968,14.28,7.14c4.08,3.175,7.337,7.113,9.775,11.815c2.436,4.704,3.655,10.173,3.655,16.404h-11.561
		c-0.229-4.646-1.275-8.696-3.145-12.154c-1.87-3.456-4.309-6.346-7.311-8.67c-3.004-2.322-6.46-4.08-10.37-5.271
		c-3.91-1.189-8.019-1.785-12.325-1.785c-3.968,0-7.793,0.426-11.475,1.275c-3.685,0.85-6.914,2.21-9.689,4.08
		c-2.779,1.87-5.016,4.335-6.716,7.395c-1.699,3.061-2.55,6.858-2.55,11.391c0,2.834,0.48,5.299,1.445,7.395
		c0.961,2.099,2.295,3.884,3.995,5.355c1.7,1.474,3.654,2.664,5.864,3.569c2.211,0.909,4.562,1.645,7.056,2.21l29.58,7.311
		c4.306,1.134,8.356,2.523,12.154,4.165c3.796,1.644,7.141,3.684,10.03,6.12c2.891,2.438,5.156,5.413,6.8,8.925
		c1.642,3.514,2.466,7.764,2.466,12.75c0,1.36-0.144,3.174-0.426,5.439c-0.284,2.269-0.964,4.676-2.04,7.226
		c-1.078,2.55-2.608,5.129-4.59,7.734c-1.984,2.609-4.704,4.96-8.16,7.056c-3.458,2.099-7.734,3.798-12.835,5.1
		c-5.1,1.302-11.22,1.955-18.359,1.955c-7.141,0-13.771-0.823-19.891-2.465s-11.334-4.165-15.64-7.565
		c-4.309-3.399-7.623-7.761-9.945-13.09c-2.324-5.325-3.314-11.729-2.975-19.21h11.56
		C342.859,110.386,343.824,115.6,345.864,119.792z"/>
	<path fill="#989898" d="M537.452,22.722v9.86h-72.25v43.859h67.66v9.86h-67.66v47.939h73.101v9.86h-84.66V22.722H537.452z"/>
	<path fill="#989898" d="M647.185,46.946c-2.324-3.682-5.158-6.771-8.5-9.265c-3.344-2.491-7.028-4.391-11.05-5.695
		c-4.024-1.302-8.245-1.955-12.665-1.955c-8.049,0-14.96,1.53-20.74,4.59c-5.779,3.061-10.514,7.114-14.194,12.155
		c-3.685,5.044-6.404,10.739-8.16,17.085c-1.759,6.349-2.636,12.864-2.636,19.55c0,6.574,0.877,13.063,2.636,19.466
		c1.756,6.404,4.476,12.128,8.16,17.17c3.681,5.044,8.415,9.095,14.194,12.154c5.78,3.061,12.691,4.591,20.74,4.591
		c5.666,0,10.766-1.021,15.3-3.061c4.532-2.04,8.441-4.815,11.73-8.33c3.285-3.512,5.95-7.62,7.989-12.325
		c2.04-4.701,3.342-9.774,3.91-15.215h11.561c-0.795,7.48-2.55,14.225-5.271,20.23c-2.72,6.008-6.234,11.108-10.54,15.3
		c-4.309,4.194-9.379,7.424-15.215,9.69c-5.838,2.266-12.325,3.399-19.465,3.399c-9.52,0-17.879-1.729-25.075-5.185
		c-7.198-3.456-13.175-8.075-17.935-13.855s-8.33-12.466-10.71-20.06c-2.38-7.592-3.57-15.582-3.57-23.971
		c0-8.386,1.19-16.375,3.57-23.97c2.38-7.592,5.95-14.307,10.71-20.145c4.76-5.836,10.736-10.481,17.935-13.94
		c7.196-3.456,15.556-5.185,25.075-5.185c5.78,0,11.417,0.85,16.915,2.55c5.496,1.7,10.481,4.224,14.96,7.564
		c4.476,3.345,8.216,7.454,11.22,12.325c3.002,4.874,4.901,10.484,5.695,16.83H652.2C651.18,54.796,649.506,50.631,647.185,46.946z"
		/>
	<path fill="#989898" d="M775.279,22.722v9.86h-42.33v111.52h-11.56V32.582h-42.16v-9.86H775.279z"/>
	<path fill="#989898" d="M808.089,22.722v121.38h-11.561V22.722H808.089z"/>
	<path fill="#989898" d="M839.535,59.441c2.381-7.592,5.95-14.307,10.71-20.145c4.761-5.836,10.737-10.481,17.936-13.94
		c7.195-3.456,15.555-5.185,25.075-5.185c9.52,0,17.85,1.729,24.989,5.185c7.141,3.459,13.091,8.104,17.851,13.94
		c4.76,5.838,8.33,12.553,10.71,20.145c2.38,7.595,3.57,15.584,3.57,23.97c0,8.389-1.19,16.379-3.57,23.971
		c-2.38,7.594-5.95,14.279-10.71,20.06s-10.71,10.399-17.851,13.855c-7.14,3.455-15.47,5.185-24.989,5.185
		c-9.521,0-17.88-1.729-25.075-5.185c-7.198-3.456-13.175-8.075-17.936-13.855c-4.76-5.78-8.329-12.466-10.71-20.06
		c-2.38-7.592-3.569-15.582-3.569-23.971C835.966,75.025,837.155,67.036,839.535,59.441z M850.16,102.877
		c1.756,6.404,4.477,12.128,8.16,17.17c3.682,5.044,8.415,9.095,14.195,12.154c5.78,3.061,12.691,4.591,20.74,4.591
		c8.046,0,14.931-1.53,20.654-4.591c5.722-3.06,10.426-7.11,14.11-12.154c3.682-5.042,6.401-10.766,8.16-17.17
		c1.756-6.402,2.635-12.892,2.635-19.466c0-6.686-0.879-13.201-2.635-19.55c-1.759-6.346-4.479-12.041-8.16-17.085
		c-3.685-5.041-8.389-9.095-14.11-12.155c-5.724-3.06-12.608-4.59-20.654-4.59c-8.049,0-14.96,1.53-20.74,4.59
		c-5.78,3.061-10.514,7.114-14.195,12.155c-3.684,5.044-6.404,10.739-8.16,17.085c-1.758,6.349-2.635,12.864-2.635,19.55
		C847.525,89.985,848.402,96.475,850.16,102.877z"/>
	<path fill="#989898" d="M990.155,22.722l70.72,102.68h0.34V22.722h11.561v121.38h-12.92l-70.721-102.68h-0.34v102.68h-11.56V22.722
		H990.155z"/>
</g>
<g>
	<g>
		<path fill="#989898" d="M331.504,200.161v-22.439h99.45v22.439h-36.38v98.94h-26.69v-98.94H331.504z"/>
		<path fill="#989898" d="M475.833,177.722v46.58h49.13v-46.58h26.69v121.38h-26.69v-52.36h-49.13v52.36h-26.689v-121.38H475.833z"
			/>
		<path fill="#989898" d="M606.053,177.722v121.38h-26.689v-121.38H606.053z"/>
		<path fill="#989898" d="M699.212,177.722c5.44,0,10.341,0.879,14.705,2.635c4.361,1.759,8.102,4.165,11.221,7.226
			c3.115,3.06,5.495,6.603,7.14,10.625c1.642,4.023,2.465,8.358,2.465,13.005c0,7.14-1.503,13.318-4.505,18.529
			c-3.004,5.215-7.905,9.181-14.705,11.9v0.34c3.286,0.908,6.006,2.295,8.16,4.165c2.151,1.87,3.91,4.08,5.27,6.63
			c1.36,2.55,2.352,5.355,2.976,8.415c0.621,3.061,1.046,6.12,1.274,9.18c0.112,1.929,0.227,4.194,0.34,6.801
			c0.112,2.608,0.312,5.27,0.596,7.989c0.281,2.721,0.735,5.3,1.359,7.735c0.622,2.438,1.557,4.505,2.806,6.205h-26.69
			c-1.474-3.852-2.38-8.441-2.72-13.77c-0.34-5.326-0.851-10.426-1.53-15.301c-0.908-6.346-2.834-10.991-5.78-13.939
			c-2.948-2.946-7.764-4.42-14.449-4.42h-26.69v47.43h-26.689v-121.38H699.212z M689.692,232.632c6.12,0,10.71-1.36,13.77-4.08
			c3.061-2.72,4.59-7.141,4.59-13.26c0-5.892-1.529-10.171-4.59-12.835c-3.06-2.662-7.649-3.995-13.77-3.995h-29.24v34.17H689.692z"
			/>
		<path fill="#989898" d="M748.171,200.161v-22.439h99.45v22.439h-36.38v98.94h-26.69v-98.94H748.171z"/>
		<path fill="#989898" d="M956.59,177.722v22.439H892.5v26.011h58.82v20.739H892.5v29.75h65.45v22.44h-92.14v-121.38H956.59z"/>
		<path fill="#989898" d="M1070.999,177.722v22.439h-64.09v26.011h58.82v20.739h-58.82v29.75h65.45v22.44h-92.14v-121.38H1070.999z"
			/>
		<path fill="#989898" d="M1121.148,177.722l50.66,81.43h0.34v-81.43h24.99v121.38h-26.69l-50.49-81.26h-0.34v81.26h-24.989v-121.38
			H1121.148z"/>
	</g>
</g>
</svg>
