<?xml version="1.0" encoding="utf-8"?>
<?xml-stylesheet type="text/css" href="css/style.css"?>
<svg version="1.1" id="Outlines" xmlns="http://www.w3.org/2000/svg" xmlns:xlink="http://www.w3.org/1999/xlink" x="0px" y="0px"
	 width="315.7px" height="315.7px" viewBox="0 0 315.7 315.7" style="enable-background:new 0 0 315.7 315.7;" xml:space="preserve"
	>
<style type="text/css">
<![CDATA[
	.st0{fill:#E44F50;}
	.st1{fill:#52C6DD;}
	.st2{fill:#A4C63A;}
]]>
</style>
<g id="logo">
	<g id="one">
		<path class="st2" d="M148,13c0,0,0-13,9.7-13c9.7,0,9.9,13,9.9,13v123c0,0-0.8,13-9.8,13c-9,0-9.8-13-9.8-13L148,13z"/>
		<path class="st2" d="M148,179.7c0,0,0-13,9.7-13c9.7,0,9.9,13,9.9,13v123c0,0-0.8,13-9.8,13c-9,0-9.8-13-9.8-13L148,179.7z"/>
	</g>
	<g id="three">
		<path class="st1" d="M179.7,167.1c0,0-13,0-13-9.7c0-9.7,13-9.9,13-9.9h123c0,0,13,0.8,13,9.8c0,9-13,9.8-13,9.8L179.7,167.1z"/>
		<path class="st1" d="M308.2,136.9c-1.1,9.7-13.8,4.9-31.4-9.9c-21.7-18.3-76.4-73.6-86.6-86.5C181.9,30,167.3,9.3,177.7,7.1
			C190.5,4.4,309.8,122.8,308.2,136.9z"/>
		<path class="st1" d="M178.7,308.2c-9.7-1.1-4.9-13.8,9.9-31.4c18.3-21.7,73.6-76.4,86.5-86.6c10.4-8.3,31.2-22.8,33.4-12.4
			C311.2,190.5,192.8,309.8,178.7,308.2z"/>
	</g>
	<g id="s">
		<path id="middlebar" class="st0" d="M13,167.1c0,0-13,0-13-9.7c0-9.7,13-9.9,13-9.9h123c0,0,13,0.8,13,9.8c0,9-13,9.8-13,9.8
			L13,167.1z"/>
		<path id="lowerbar" class="st0" d="M141.6,178.7c-1.1-9.7-13.8-4.9-31.4,9.9c-21.7,18.3-76.4,73.6-86.6,86.5
			c-8.3,10.4-22.8,31.2-12.4,33.4C23.9,311.2,143.1,192.8,141.6,178.7z"/>
		<path id="topbar" class="st0" d="M7.5,136.9c1.1,9.7,13.8,4.9,31.4-9.9c21.7-18.3,76.4-73.6,86.6-86.5
			c8.3-10.4,22.8-31.2,12.4-33.4C125.2,4.4,5.9,122.8,7.5,136.9z"/>
	</g>
</g>
</svg>
