<?xml version="1.0" encoding="utf-8"?>
<!-- Generator: Adobe Illustrator 16.0.0, SVG Export Plug-In . SVG Version: 6.00 Build 0)  -->
<!DOCTYPE svg PUBLIC "-//W3C//DTD SVG 1.1//EN" "http://www.w3.org/Graphics/SVG/1.1/DTD/svg11.dtd">
<svg version="1.1" id="Outlines" xmlns="http://www.w3.org/2000/svg" xmlns:xlink="http://www.w3.org/1999/xlink" x="0px" y="0px"
	 viewBox="0 0 1197.1 315.7" enable-background="new 0 0 1197.1 315.7" xml:space="preserve">
	 <style>
	 	@media screen and (max-width: 400px)	{
	 		#text	{
	 			display: none;
	 		}
	 	}
	 </style>
<g id="logo">
	<g>
		<path fill="#A4C63A" d="M148,13c0,0,0-13,9.7-13c9.7,0,9.9,13,9.9,13v123c0,0-0.8,13-9.8,13c-9,0-9.8-13-9.8-13L148,13z"/>
		<path fill="#A4C63A" d="M148,179.7c0,0,0-13,9.7-13c9.7,0,9.9,13,9.9,13v123c0,0-0.8,13-9.8,13c-9,0-9.8-13-9.8-13L148,179.7z"/>
	</g>
	<g>
		<path fill="#52C6DD" d="M179.7,167.1c0,0-13,0-13-9.7c0-9.7,13-9.9,13-9.9h123c0,0,13,0.8,13,9.8c0,9-13,9.8-13,9.8L179.7,167.1z"
			/>
		<path fill="#52C6DD" d="M308.2,136.9c-1.1,9.7-13.8,4.9-31.4-9.9c-21.7-18.3-76.4-73.6-86.6-86.5C181.9,30,167.3,9.3,177.7,7.1
			C190.5,4.4,309.8,122.8,308.2,136.9z"/>
		<path fill="#52C6DD" d="M178.7,308.2c-9.7-1.1-4.9-13.8,9.9-31.4c18.3-21.7,73.6-76.4,86.5-86.6c10.4-8.3,31.2-22.8,33.4-12.4
			C311.2,190.5,192.8,309.8,178.7,308.2z"/>
	</g>
	<g>
		<path fill="#E44F50" d="M13,167.1c0,0-13,0-13-9.7c0-9.7,13-9.9,13-9.9h123c0,0,13,0.8,13,9.8c0,9-13,9.8-13,9.8L13,167.1z"/>
		<path fill="#E44F50" d="M141.6,178.7c-1.1-9.7-13.8-4.9-31.4,9.9c-21.7,18.3-76.4,73.6-86.6,86.5c-8.3,10.4-22.8,31.2-12.4,33.4
			C23.9,311.2,143.1,192.8,141.6,178.7z"/>
		<path fill="#E44F50" d="M7.5,136.9c1.1,9.7,13.8,4.9,31.4-9.9c21.7-18.3,76.4-73.6,86.6-86.5c8.3-10.4,22.8-31.2,12.4-33.4
			C125.2,4.4,5.9,122.8,7.5,136.9z"/>
	</g>
</g>
<g id="text">
	<g id="Section">
		<path fill="#989898" d="M345.9,119.8c2,4.2,4.8,7.5,8.4,10c3.6,2.5,7.8,4.3,12.7,5.4c4.9,1.1,10.1,1.6,15.6,1.6
			c3.2,0,6.6-0.5,10.4-1.4c3.7-0.9,7.2-2.4,10.5-4.3c3.2-2,5.9-4.5,8.1-7.7c2.2-3.1,3.2-6.9,3.2-11.3c0-3.4-0.8-6.3-2.3-8.8
			c-1.5-2.5-3.5-4.6-6-6.3c-2.4-1.7-5.1-3.1-8.1-4.2c-2.9-1.1-5.8-2-8.7-2.6l-27-6.6c-3.5-0.9-6.9-2-10.3-3.4
			c-3.3-1.4-6.3-3.2-8.8-5.4c-2.5-2.3-4.5-5-6-8.3c-1.5-3.3-2.3-7.3-2.3-12.1c0-2.9,0.6-6.4,1.7-10.4c1.1-4,3.3-7.7,6.4-11.2
			c3.1-3.5,7.4-6.5,12.8-8.9c5.4-2.4,12.4-3.7,20.9-3.7c6,0,11.7,0.8,17.2,2.4c5.4,1.6,10.2,4,14.3,7.1c4.1,3.2,7.3,7.1,9.8,11.8
			c2.4,4.7,3.7,10.2,3.7,16.4h-11.6c-0.2-4.6-1.3-8.7-3.1-12.2c-1.9-3.5-4.3-6.3-7.3-8.7c-3-2.3-6.5-4.1-10.4-5.3
			c-3.9-1.2-8-1.8-12.3-1.8c-4,0-7.8,0.4-11.5,1.3c-3.7,0.8-6.9,2.2-9.7,4.1c-2.8,1.9-5,4.3-6.7,7.4c-1.7,3.1-2.5,6.9-2.5,11.4
			c0,2.8,0.5,5.3,1.4,7.4c1,2.1,2.3,3.9,4,5.4c1.7,1.5,3.7,2.7,5.9,3.6c2.2,0.9,4.6,1.6,7.1,2.2l29.6,7.3c4.3,1.1,8.4,2.5,12.2,4.2
			c3.8,1.6,7.1,3.7,10,6.1c2.9,2.4,5.2,5.4,6.8,8.9c1.6,3.5,2.5,7.8,2.5,12.8c0,1.4-0.1,3.2-0.4,5.4c-0.3,2.3-1,4.7-2,7.2
			c-1.1,2.5-2.6,5.1-4.6,7.7c-2,2.6-4.7,5-8.2,7.1c-3.5,2.1-7.7,3.8-12.8,5.1c-5.1,1.3-11.2,2-18.4,2c-7.1,0-13.8-0.8-19.9-2.5
			s-11.3-4.2-15.6-7.6c-4.3-3.4-7.6-7.8-9.9-13.1c-2.3-5.3-3.3-11.7-3-19.2H343C342.9,110.4,343.8,115.6,345.9,119.8z"/>
		<path fill="#989898" d="M537.5,22.7v9.9h-72.2v43.9h67.7v9.9h-67.7v47.9h73.1v9.9h-84.7V22.7H537.5z"/>
		<path fill="#989898" d="M647.2,46.9c-2.3-3.7-5.2-6.8-8.5-9.3c-3.3-2.5-7-4.4-11-5.7c-4-1.3-8.2-2-12.7-2c-8,0-15,1.5-20.7,4.6
			c-5.8,3.1-10.5,7.1-14.2,12.2c-3.7,5-6.4,10.7-8.2,17.1c-1.8,6.3-2.6,12.9-2.6,19.5c0,6.6,0.9,13.1,2.6,19.5
			c1.8,6.4,4.5,12.1,8.2,17.2c3.7,5,8.4,9.1,14.2,12.2c5.8,3.1,12.7,4.6,20.7,4.6c5.7,0,10.8-1,15.3-3.1c4.5-2,8.4-4.8,11.7-8.3
			c3.3-3.5,6-7.6,8-12.3c2-4.7,3.3-9.8,3.9-15.2h11.6c-0.8,7.5-2.5,14.2-5.3,20.2c-2.7,6-6.2,11.1-10.5,15.3
			c-4.3,4.2-9.4,7.4-15.2,9.7c-5.8,2.3-12.3,3.4-19.5,3.4c-9.5,0-17.9-1.7-25.1-5.2c-7.2-3.5-13.2-8.1-17.9-13.9
			s-8.3-12.5-10.7-20.1c-2.4-7.6-3.6-15.6-3.6-24c0-8.4,1.2-16.4,3.6-24c2.4-7.6,6-14.3,10.7-20.1c4.8-5.8,10.7-10.5,17.9-13.9
			c7.2-3.5,15.6-5.2,25.1-5.2c5.8,0,11.4,0.8,16.9,2.5c5.5,1.7,10.5,4.2,15,7.6c4.5,3.3,8.2,7.5,11.2,12.3c3,4.9,4.9,10.5,5.7,16.8
			h-11.6C651.2,54.8,649.5,50.6,647.2,46.9z"/>
		<path fill="#989898" d="M775.3,22.7v9.9h-42.3v111.5h-11.6V32.6h-42.2v-9.9H775.3z"/>
		<path fill="#989898" d="M808.1,22.7v121.4h-11.6V22.7H808.1z"/>
		<path fill="#989898" d="M839.5,59.4c2.4-7.6,6-14.3,10.7-20.1c4.8-5.8,10.7-10.5,17.9-13.9c7.2-3.5,15.6-5.2,25.1-5.2
			c9.5,0,17.8,1.7,25,5.2c7.1,3.5,13.1,8.1,17.9,13.9c4.8,5.8,8.3,12.6,10.7,20.1c2.4,7.6,3.6,15.6,3.6,24c0,8.4-1.2,16.4-3.6,24
			c-2.4,7.6-6,14.3-10.7,20.1s-10.7,10.4-17.9,13.9c-7.1,3.5-15.5,5.2-25,5.2c-9.5,0-17.9-1.7-25.1-5.2c-7.2-3.5-13.2-8.1-17.9-13.9
			c-4.8-5.8-8.3-12.5-10.7-20.1c-2.4-7.6-3.6-15.6-3.6-24C836,75,837.2,67,839.5,59.4z M850.2,102.9c1.8,6.4,4.5,12.1,8.2,17.2
			c3.7,5,8.4,9.1,14.2,12.2c5.8,3.1,12.7,4.6,20.7,4.6c8,0,14.9-1.5,20.7-4.6c5.7-3.1,10.4-7.1,14.1-12.2c3.7-5,6.4-10.8,8.2-17.2
			c1.8-6.4,2.6-12.9,2.6-19.5c0-6.7-0.9-13.2-2.6-19.5c-1.8-6.3-4.5-12-8.2-17.1c-3.7-5-8.4-9.1-14.1-12.2
			c-5.7-3.1-12.6-4.6-20.7-4.6c-8,0-15,1.5-20.7,4.6c-5.8,3.1-10.5,7.1-14.2,12.2c-3.7,5-6.4,10.7-8.2,17.1
			c-1.8,6.3-2.6,12.9-2.6,19.5C847.5,90,848.4,96.5,850.2,102.9z"/>
		<path fill="#989898" d="M990.2,22.7l70.7,102.7h0.3V22.7h11.6v121.4h-12.9L989.1,41.4h-0.3v102.7h-11.6V22.7H990.2z"/>
	</g>
	<g id="Thirteen">
		<g>
			<path fill="#989898" d="M331.5,200.2v-22.4H431v22.4h-36.4v98.9h-26.7v-98.9H331.5z"/>
			<path fill="#989898" d="M475.8,177.7v46.6H525v-46.6h26.7v121.4H525v-52.4h-49.1v52.4h-26.7V177.7H475.8z"/>
			<path fill="#989898" d="M606.1,177.7v121.4h-26.7V177.7H606.1z"/>
			<path fill="#989898" d="M699.2,177.7c5.4,0,10.3,0.9,14.7,2.6c4.4,1.8,8.1,4.2,11.2,7.2c3.1,3.1,5.5,6.6,7.1,10.6
				c1.6,4,2.5,8.4,2.5,13c0,7.1-1.5,13.3-4.5,18.5c-3,5.2-7.9,9.2-14.7,11.9v0.3c3.3,0.9,6,2.3,8.2,4.2c2.2,1.9,3.9,4.1,5.3,6.6
				c1.4,2.5,2.4,5.4,3,8.4c0.6,3.1,1,6.1,1.3,9.2c0.1,1.9,0.2,4.2,0.3,6.8c0.1,2.6,0.3,5.3,0.6,8c0.3,2.7,0.7,5.3,1.4,7.7
				c0.6,2.4,1.6,4.5,2.8,6.2h-26.7c-1.5-3.9-2.4-8.4-2.7-13.8c-0.3-5.3-0.9-10.4-1.5-15.3c-0.9-6.3-2.8-11-5.8-13.9
				c-2.9-2.9-7.8-4.4-14.4-4.4h-26.7v47.4h-26.7V177.7H699.2z M689.7,232.6c6.1,0,10.7-1.4,13.8-4.1c3.1-2.7,4.6-7.1,4.6-13.3
				c0-5.9-1.5-10.2-4.6-12.8c-3.1-2.7-7.6-4-13.8-4h-29.2v34.2H689.7z"/>
			<path fill="#989898" d="M748.2,200.2v-22.4h99.5v22.4h-36.4v98.9h-26.7v-98.9H748.2z"/>
			<path fill="#989898" d="M956.6,177.7v22.4h-64.1v26h58.8v20.7h-58.8v29.8H958v22.4h-92.1V177.7H956.6z"/>
			<path fill="#989898" d="M1071,177.7v22.4h-64.1v26h58.8v20.7h-58.8v29.8h65.5v22.4h-92.1V177.7H1071z"/>
			<path fill="#989898" d="M1121.1,177.7l50.7,81.4h0.3v-81.4h25v121.4h-26.7l-50.5-81.3h-0.3v81.3h-25V177.7H1121.1z"/>
		</g>
	</g>
</g>
<g>
</g>
</svg>
