<svg xmlns="http://www.w3.org/2000/svg" width="1197.139" height="315.671" viewBox="0 0 1197.139 315.671"><g fill="#A4C63A"><path d="M148.032 13.03S148.04 0 157.78 0c9.738 0 9.86 13.03 9.86 13.03v123.03s-.79 12.952-9.805 12.952c-9.016 0-9.763-13.023-9.763-13.023l-.04-122.96zM148.032 179.69s.007-13.03 9.748-13.03c9.738 0 9.86 13.03 9.86 13.03v123.03s-.79 12.95-9.805 12.95c-9.016 0-9.763-13.023-9.763-13.023l-.04-122.958z"/></g><g fill="#52C6DD"><path d="M179.69 167.05s-13.03-.005-13.03-9.746c0-9.74 13.03-9.86 13.03-9.86h123.03s12.95.79 12.95 9.804c0 9.016-13.023 9.763-13.023 9.763l-122.957.04zM308.21 136.923c-1.094 9.666-13.772 4.927-31.446-9.94-21.697-18.253-76.448-73.626-86.64-86.507-8.27-10.448-22.814-31.207-12.4-33.38 12.79-2.67 132.08 115.747 130.485 129.827zM178.748 308.208c-9.665-1.093-4.926-13.77 9.94-31.443 18.253-21.7 73.627-76.45 86.507-86.64 10.448-8.27 31.208-22.815 33.38-12.4 2.67 12.79-115.747 132.078-129.827 130.483z"/></g><g fill="#E44F50"><path d="M13.032 167.05S0 167.046 0 157.305c0-9.74 13.032-9.86 13.032-9.86h123.03s12.95.79 12.95 9.804c0 9.016-13.024 9.763-13.024 9.763l-122.956.04zM141.55 178.747c-1.093-9.666-13.77-4.926-31.443 9.94-21.698 18.253-76.45 73.627-86.64 86.507-8.27 10.45-22.814 31.21-12.4 33.38 12.787 2.67 132.077-115.746 130.484-129.827zM7.463 136.923c1.093 9.666 13.77 4.927 31.443-9.94 21.7-18.253 76.45-73.626 86.642-86.507 8.268-10.448 22.813-31.207 12.4-33.38-12.79-2.67-132.08 115.747-130.485 129.827z"/></g><g fill="#989898"><path d="M345.864 119.792c2.04 4.193 4.845 7.538 8.415 10.03 3.568 2.493 7.79 4.278 12.664 5.354 4.87 1.078 10.085 1.615 15.64 1.615 3.172 0 6.63-.45 10.37-1.36 3.74-.905 7.225-2.35 10.455-4.334 3.228-1.98 5.92-4.53 8.074-7.65 2.15-3.115 3.23-6.885 3.23-11.305 0-3.4-.766-6.345-2.296-8.84-1.53-2.49-3.515-4.59-5.95-6.29-2.438-1.7-5.13-3.086-8.075-4.164-2.948-1.076-5.838-1.955-8.67-2.635l-27.03-6.63c-3.514-.905-6.942-2.04-10.284-3.4-3.346-1.36-6.265-3.17-8.756-5.44-2.494-2.265-4.505-5.04-6.035-8.33-1.53-3.284-2.296-7.31-2.296-12.068 0-2.946.565-6.4 1.7-10.37 1.13-3.966 3.256-7.706 6.375-11.22 3.114-3.512 7.394-6.487 12.834-8.926 5.44-2.436 12.41-3.654 20.91-3.654 6.005 0 11.73.794 17.17 2.38 5.44 1.588 10.2 3.968 14.28 7.14 4.08 3.175 7.336 7.113 9.774 11.815 2.436 4.704 3.655 10.173 3.655 16.404h-11.56c-.23-4.645-1.276-8.695-3.146-12.153-1.87-3.456-4.31-6.346-7.31-8.67-3.005-2.322-6.46-4.08-10.37-5.27-3.91-1.19-8.02-1.786-12.326-1.786-3.967 0-7.792.427-11.474 1.276-3.685.85-6.914 2.21-9.69 4.08-2.778 1.87-5.015 4.335-6.715 7.395-1.698 3.062-2.55 6.86-2.55 11.392 0 2.834.48 5.3 1.446 7.395.96 2.1 2.295 3.884 3.995 5.355 1.7 1.474 3.655 2.664 5.865 3.57 2.21.908 4.562 1.644 7.056 2.21l29.58 7.31c4.307 1.134 8.357 2.523 12.155 4.165 3.796 1.644 7.14 3.684 10.03 6.12 2.89 2.438 5.156 5.413 6.8 8.925 1.642 3.514 2.466 7.764 2.466 12.75 0 1.36-.143 3.174-.425 5.44-.284 2.268-.964 4.675-2.04 7.225-1.078 2.55-2.608 5.13-4.59 7.734-1.984 2.61-4.704 4.96-8.16 7.057-3.458 2.1-7.734 3.798-12.835 5.1-5.1 1.302-11.22 1.955-18.36 1.955-7.14 0-13.77-.823-19.89-2.465s-11.334-4.165-15.64-7.565c-4.31-3.4-7.623-7.76-9.945-13.09-2.324-5.325-3.314-11.73-2.975-19.21h11.56c-.11 6.234.854 11.448 2.894 15.64zM537.452 22.722v9.86h-72.25v43.86h67.66v9.86h-67.66v47.938h73.1v9.86h-84.66V22.722h83.81zM647.185 46.946c-2.324-3.682-5.158-6.77-8.5-9.265-3.344-2.49-7.028-4.39-11.05-5.694-4.024-1.302-8.245-1.955-12.665-1.955-8.05 0-14.96 1.53-20.74 4.59-5.78 3.062-10.514 7.115-14.194 12.156-3.685 5.044-6.404 10.74-8.16 17.085-1.76 6.35-2.636 12.865-2.636 19.55 0 6.575.877 13.064 2.636 19.467 1.756 6.404 4.476 12.128 8.16 17.17 3.68 5.044 8.415 9.095 14.194 12.154 5.78 3.062 12.69 4.592 20.74 4.592 5.666 0 10.766-1.02 15.3-3.06 4.532-2.04 8.44-4.816 11.73-8.33 3.285-3.513 5.95-7.62 7.99-12.326 2.04-4.7 3.34-9.774 3.91-15.215h11.56c-.795 7.48-2.55 14.226-5.27 20.23-2.72 6.01-6.235 11.11-10.54 15.3-4.31 4.195-9.38 7.425-15.216 9.69-5.838 2.267-12.325 3.4-19.465 3.4-9.52 0-17.88-1.73-25.076-5.185-7.198-3.456-13.175-8.075-17.935-13.855s-8.33-12.466-10.71-20.06c-2.38-7.592-3.57-15.582-3.57-23.97 0-8.387 1.19-16.376 3.57-23.97 2.38-7.593 5.95-14.308 10.71-20.146 4.76-5.836 10.735-10.48 17.934-13.94 7.196-3.456 15.556-5.185 25.075-5.185 5.78 0 11.416.85 16.914 2.55 5.496 1.7 10.48 4.223 14.96 7.563 4.476 3.345 8.216 7.454 11.22 12.325 3.002 4.874 4.9 10.484 5.695 16.83H652.2c-1.02-4.642-2.694-8.807-5.015-12.492zM775.28 22.722v9.86h-42.33v111.52h-11.56V32.582h-42.16v-9.86h96.05zM808.09 22.722v121.38h-11.562V22.722h11.56zM839.535 59.44c2.38-7.59 5.95-14.306 10.71-20.144 4.76-5.836 10.737-10.48 17.936-13.94 7.196-3.456 15.556-5.185 25.076-5.185 9.52 0 17.85 1.73 24.99 5.186 7.14 3.46 13.09 8.104 17.85 13.94 4.76 5.838 8.33 12.553 10.71 20.145 2.38 7.596 3.57 15.585 3.57 23.97 0 8.39-1.19 16.38-3.57 23.972-2.38 7.594-5.95 14.28-10.71 20.06s-10.71 10.4-17.85 13.855c-7.14 3.455-15.47 5.185-24.99 5.185-9.52 0-17.88-1.73-25.075-5.185-7.197-3.456-13.174-8.075-17.935-13.855-4.76-5.78-8.33-12.466-10.71-20.06-2.38-7.592-3.57-15.582-3.57-23.97 0-8.387 1.19-16.376 3.57-23.97zm10.625 43.437c1.756 6.404 4.477 12.128 8.16 17.17 3.682 5.044 8.415 9.095 14.195 12.154 5.78 3.062 12.69 4.592 20.74 4.592 8.046 0 14.93-1.53 20.654-4.59 5.72-3.06 10.425-7.11 14.11-12.155 3.68-5.042 6.4-10.766 8.16-17.17 1.755-6.402 2.634-12.892 2.634-19.466 0-6.685-.88-13.2-2.635-19.55-1.76-6.345-4.48-12.04-8.16-17.084-3.686-5.04-8.39-9.095-14.11-12.155-5.725-3.06-12.61-4.59-20.655-4.59-8.05 0-14.96 1.53-20.74 4.59-5.78 3.062-10.514 7.115-14.195 12.156-3.684 5.044-6.404 10.74-8.16 17.085-1.758 6.35-2.635 12.865-2.635 19.55 0 6.575.877 13.065 2.635 19.467zM990.155 22.722l70.72 102.68h.34V22.722h11.56v121.38h-12.92l-70.72-102.68h-.34v102.68h-11.56V22.722h12.92z"/></g><g><g fill="#989898"><path d="M331.504 200.16v-22.438h99.45v22.44h-36.38v98.94h-26.69v-98.94h-36.38zM475.833 177.722v46.58h49.13v-46.58h26.69v121.38h-26.69v-52.36h-49.13v52.36h-26.69v-121.38h26.69zM606.053 177.722v121.38h-26.69v-121.38h26.69zM699.212 177.722c5.44 0 10.34.88 14.705 2.635 4.36 1.76 8.102 4.165 11.22 7.226 3.116 3.06 5.496 6.603 7.14 10.625 1.643 4.023 2.466 8.358 2.466 13.005 0 7.14-1.503 13.318-4.505 18.53-3.004 5.214-7.905 9.18-14.705 11.9v.34c3.286.907 6.006 2.294 8.16 4.164 2.15 1.87 3.91 4.08 5.27 6.63 1.36 2.55 2.352 5.355 2.976 8.415.62 3.06 1.045 6.12 1.273 9.18.112 1.93.227 4.194.34 6.8.112 2.61.312 5.27.596 7.99.28 2.72.734 5.3 1.358 7.735.622 2.438 1.557 4.505 2.806 6.205h-26.69c-1.474-3.852-2.38-8.44-2.72-13.77-.34-5.326-.85-10.426-1.53-15.3-.908-6.347-2.834-10.992-5.78-13.94-2.948-2.946-7.764-4.42-14.45-4.42h-26.69v47.43h-26.688v-121.38h65.446zm-9.52 54.91c6.12 0 10.71-1.36 13.77-4.08 3.06-2.72 4.59-7.14 4.59-13.26 0-5.892-1.53-10.17-4.59-12.835-3.06-2.662-7.65-3.995-13.77-3.995h-29.24v34.17h29.24zM748.17 200.16v-22.438h99.45v22.44h-36.38v98.94h-26.69v-98.94h-36.38zM956.59 177.722v22.44H892.5v26.01h58.82v20.74H892.5v29.75h65.45v22.44h-92.14V177.72h90.78zM1071 177.722v22.44h-64.09v26.01h58.82v20.74h-58.82v29.75h65.45v22.44h-92.14V177.72H1071zM1121.148 177.722l50.66 81.43h.34v-81.43h24.99v121.38h-26.69l-50.49-81.26h-.34v81.26h-24.99v-121.38h26.52z"/></g></g></svg>